<svg width="1024" height="1024" viewBox="0 0 1024 1024" fill="none" xmlns="http://www.w3.org/2000/svg">
<path d="M713.57 4.21802C681.34 10.8568 628.966 34.0923 601.973 53.6396L581.427 68.7612L547.988 64.7042C469.427 55.4838 369.111 74.6623 280.479 115.97C172.508 166.129 71.3866 276.406 30.2933 388.526C11.7611 439.423 -5.56258 558.552 1.68917 585.475C4.10642 594.696 12.9697 596.909 40.7681 595.433C90.7246 592.852 111.674 594.696 131.415 604.285C227.702 650.018 232.94 780.211 140.278 823.363C133.429 826.682 126.983 830.002 126.178 830.371C125.372 830.739 128.998 838.853 133.832 848.074L143.098 865.039L172.508 869.465C188.623 871.678 201.918 874.997 201.918 876.104C201.515 877.21 195.472 884.587 188.22 892.701L174.926 907.085L180.969 928.845C184.192 940.647 185.803 951.343 184.595 952.818C182.983 953.925 168.077 950.605 151.156 945.073C121.746 935.484 120.134 935.115 102.005 940.647C91.9332 943.966 78.2355 946.548 71.7895 946.548C60.1061 946.548 60.1061 946.548 62.5233 929.951C65.3435 914.83 64.5377 913.355 57.2859 913.355C52.4514 913.355 48.8256 912.248 48.8256 911.142C48.8256 906.716 58.4946 892.332 68.9693 882.005C75.0125 875.735 81.8613 863.195 84.6815 853.606C90.3217 831.477 90.3217 832.215 81.0556 832.215C76.624 832.215 64.1348 828.895 52.8543 825.207L32.7106 818.2V921.1V1024H62.9262H93.1418V1000.76C93.1418 974.947 97.9763 967.571 118.523 963.145L129.401 960.563V992.282V1024H228.105H326.809V951.343V878.686L310.694 863.564C297.4 851.024 291.759 840.697 278.464 804.922C269.601 780.949 262.349 759.557 262.349 757.345C262.349 755.132 244.22 702.759 222.465 640.798C166.868 484.05 161.631 467.085 161.631 451.963C161.631 434.26 179.76 402.542 196.278 391.108C220.853 373.774 239.386 371.192 343.73 371.192H439.615V398.853V426.515H423.5C408.996 426.515 407.385 425.408 407.385 417.294V408.074H324.392C255.098 408.074 238.983 409.18 227.299 414.344C208.767 422.089 197.084 439.423 199.501 454.545C201.112 465.241 227.299 541.586 299.011 744.436C329.63 831.477 331.644 835.903 346.953 848.074L363.068 860.614V942.122V1024H378.378H393.284L393.687 941.016C394.09 869.465 394.895 856.925 400.536 851.393C404.564 847.705 407.385 838.485 407.385 831.108C407.385 818.2 407.385 817.831 393.284 820.044C371.931 823.363 361.86 814.88 352.996 787.588C346.953 767.671 322.378 697.227 250.263 494.008C243.414 475.568 238.177 459.34 238.177 458.233C238.177 457.127 283.702 456.02 338.896 456.02H439.615L437.6 661.452C436.794 774.679 434.78 902.659 433.571 945.811L431.154 1024H457.744H483.931V591.008C483.931 199.692 484.737 158.015 490.377 155.802C494.003 154.696 511.729 153.589 529.859 153.589H562.894L569.743 141.049C572.966 134.042 587.067 116.708 600.765 102.324C621.311 80.1945 630.577 73.9246 658.376 61.7537C712.361 38.1493 754.663 38.8869 809.051 63.2289C864.245 88.3085 906.144 144 916.216 205.593C924.273 258.334 906.547 313.288 867.065 354.226C855.785 366.397 840.073 380.412 832.418 385.576C821.137 392.583 818.317 397.009 818.317 406.967C818.317 430.203 796.562 454.914 763.123 470.404C747.411 477.412 746.203 478.887 749.828 487.739C759.9 511.343 748.62 549.331 725.253 570.723C709.138 585.475 708.735 586.213 701.081 633.79C693.426 678.786 693.426 683.212 699.066 697.596C704.706 710.873 707.929 713.455 722.836 716.775C781.253 730.052 828.792 741.854 857.799 750.337L891.238 760.295L898.892 751.075C939.18 703.128 971.41 601.334 971.41 523.145C971.41 487.37 966.172 442.743 961.741 438.686C960.935 437.579 952.475 441.636 943.209 447.169C926.691 457.495 925.885 457.495 920.245 450.488C906.144 433.153 906.144 431.309 921.05 422.827C942.806 410.656 979.87 370.823 996.791 342.424C1030.63 284.889 1033.05 203.38 1003.24 143.262C970.604 77.244 916.619 32.2482 842.893 9.75031C809.051 -0.57666 749.023 -3.15833 713.57 4.21802ZM408.19 142.525C410.608 149.532 415.845 154.327 421.888 155.802C435.183 158.753 435.183 172.03 421.888 172.03C415.039 172.03 411.816 174.981 408.996 183.832C403.759 200.06 396.104 200.798 389.255 185.677C385.629 177.194 379.989 172.03 374.349 171.293C360.651 169.449 360.651 160.966 374.752 156.171C383.212 153.589 387.644 148.795 389.255 141.787C392.881 128.141 402.55 128.51 408.19 142.525ZM296.594 194.159C297.802 198.216 303.443 202.642 309.083 203.749C321.975 206.699 321.169 214.813 307.069 221.452C300.623 224.771 294.579 230.672 293.371 235.098C290.551 243.95 282.493 241.368 282.493 231.041C282.493 226.984 278.062 222.927 270.407 220.345C263.961 218.501 258.321 214.813 258.321 212.6C258.321 210.018 263.961 206.33 270.407 204.117C277.659 201.536 282.493 197.11 282.493 193.422C282.493 184.57 293.371 184.939 296.594 194.159ZM226.494 264.604C241.803 273.086 253.486 280.832 252.278 282.307C249.457 286.733 203.127 312.181 198.292 312.181C191.443 312.181 193.055 291.527 200.307 285.995C205.947 281.938 205.947 281.2 200.307 278.25C194.264 275.299 190.638 249.482 196.278 249.482C197.487 249.482 211.184 256.121 226.494 264.604ZM373.14 268.292C375.557 268.292 384.018 267.185 392.478 265.71L407.787 263.128L400.939 276.775C394.09 289.314 394.09 290.79 400.939 303.329C404.564 310.706 406.982 317.713 405.773 318.451C404.564 319.557 397.313 318.451 389.255 315.869C378.78 312.55 371.529 312.55 362.262 315.5C343.327 321.77 342.522 320.664 349.37 304.436C354.608 292.634 355.011 287.839 351.385 280.463C344.536 266.079 345.745 263.128 358.234 265.71C364.277 267.185 371.126 268.292 373.14 268.292ZM156.796 287.47C158.408 294.847 146.724 300.01 140.681 294.478C134.638 288.946 140.278 278.25 148.336 279.725C152.365 280.463 155.99 283.782 156.796 287.47ZM129.803 359.759C132.624 366.397 137.861 371.561 143.904 372.667C156.796 375.618 155.185 386.682 141.487 389.633C135.847 390.739 131.012 394.796 130.206 398.853C127.386 412.5 121.343 413.606 116.509 401.804C113.688 394.428 108.451 389.633 103.214 388.895C91.9332 387.42 92.3361 373.405 104.019 371.93C109.257 371.192 114.091 366.766 116.911 359.759C122.149 346.112 124.566 346.112 129.803 359.759ZM110.063 491.058C110.868 495.853 114.897 498.803 122.552 499.541C136.249 501.016 136.249 512.449 122.149 514.293C116.509 515.031 112.48 519.088 110.868 524.62C107.645 535.685 97.9763 536.423 96.3648 525.358C95.5591 520.195 91.5303 516.506 85.0843 515.031C79.4441 513.925 74.6096 509.868 73.8038 506.548C72.5952 501.754 75.4153 500.278 84.6815 500.278C95.1562 500.278 97.1706 498.803 97.1706 491.796C97.1706 475.936 106.84 475.199 110.063 491.058ZM896.475 505.073C902.921 514.662 885.597 527.94 874.317 522.407C865.857 517.982 863.842 502.122 871.9 498.803C880.763 495.484 892.043 498.434 896.475 505.073ZM828.792 553.757C830.001 558.92 836.044 565.19 841.281 567.403C854.173 573.304 853.77 579.205 840.878 580.681C834.029 581.418 830.806 584.738 828.792 592.852C825.972 606.867 815.497 606.867 812.274 592.852C810.26 584.369 807.037 581.418 798.979 580.681C785.281 579.205 784.476 568.879 797.771 567.403C803.814 566.297 808.648 562.24 811.468 555.232C817.109 541.955 825.166 541.217 828.792 553.757ZM763.526 652.6C771.987 658.501 770.778 669.197 761.109 675.098C747.008 683.212 731.296 665.14 741.771 653.338C747.814 646.699 754.26 646.33 763.526 652.6ZM864.245 673.254C877.54 686.531 856.993 703.866 843.296 691.326C834.029 682.843 840.475 666.246 852.562 666.246C855.382 666.246 860.619 669.566 864.245 673.254ZM272.018 947.286C280.882 960.194 261.141 974.578 248.249 964.989C240.191 958.719 240.594 947.655 249.457 943.229C258.724 938.065 266.378 939.541 272.018 947.286Z" fill="white"/>
<path d="M711.958 122.609C698.663 134.78 709.943 157.278 729.281 157.278C749.022 157.278 759.094 140.313 749.828 123.716C744.591 114.864 720.821 114.127 711.958 122.609Z" fill="white"/>
<path d="M596.736 179.407C574.175 186.783 555.24 190.471 539.528 190.471H516.161V304.805V419.138H606.003C661.599 419.138 693.024 420.614 688.995 422.827C678.117 428.728 599.154 441.636 557.658 444.218L518.176 446.8L516.967 462.29L515.759 478.149H533.082C553.629 478.149 648.707 467.822 653.542 464.872C659.182 461.921 657.973 475.199 643.067 567.772C631.384 643.38 627.355 659.239 616.477 681.737C595.528 722.676 569.744 740.01 528.248 740.01C519.384 740.01 510.924 742.592 507.701 745.911C503.269 751.075 504.075 753.288 515.356 762.877L528.651 773.573L519.384 789.063C514.147 797.546 506.895 808.61 503.269 813.774C496.823 822.625 496.823 823.732 511.73 843.648L527.039 864.302L523.816 891.594C522.205 906.716 518.579 936.959 516.161 959.457C513.744 981.586 510.924 1005.56 509.715 1012.2L507.298 1024H545.168H583.039L574.175 956.506C561.283 863.564 561.283 865.408 581.024 841.435L597.542 821.519L579.01 797.915C568.938 784.637 560.478 773.204 560.478 771.728C560.478 770.622 567.327 766.565 575.787 762.508C593.513 754.025 622.923 730.052 633.398 715.668C649.916 692.064 648.304 722.307 620.909 909.666C612.046 969.415 604.794 1019.57 604.794 1021.05C604.794 1022.89 649.11 1024 703.498 1024H802.203V974.21C802.203 924.788 802.203 924.419 811.872 922.206C817.512 921.1 823.958 921.1 825.972 922.575C828.793 924.05 830.404 943.598 830.404 974.578V1024H866.663H902.922L902.116 920.731L900.907 817.462L886.001 804.184C873.109 792.013 863.843 788.694 797.771 770.991C757.081 760.295 723.239 752.181 722.031 752.919C721.225 754.025 731.7 772.466 744.994 794.595C758.289 816.724 770.778 838.853 771.987 844.017C774.001 850.656 770.376 863.564 760.304 886.062C743.786 922.944 743.383 924.419 751.843 924.419C756.678 924.419 778.03 949.868 778.03 955.769C778.03 956.875 759.901 957.613 737.743 957.613C709.541 957.613 697.455 956.137 697.455 953.187C697.455 950.974 707.527 927.37 719.613 901.184L742.174 853.606L721.225 818.2C702.29 785.375 688.995 759.189 662.808 701.653C654.348 683.581 653.542 678.417 657.168 668.828C659.182 662.558 664.822 635.635 669.254 609.448C676.909 564.084 678.117 560.764 689.398 552.651C715.987 533.472 723.239 496.959 703.901 478.518C692.621 467.822 690.203 456.758 698.664 454.545C743.786 442.374 782.059 422.089 782.059 409.918C782.059 399.591 764.735 385.945 743.786 380.044C718.405 372.667 722.836 383.732 699.47 265.71C691.412 225.14 684.16 189.365 682.952 186.045C676.103 165.023 647.902 162.81 596.736 179.407ZM649.11 352.751C649.11 370.823 648.707 371.192 637.024 371.192C627.758 371.192 624.938 369.717 624.938 363.816C624.938 357.915 622.118 356.439 610.837 356.439C597.945 356.439 596.736 355.702 596.736 345.375V334.31H622.923H649.11V352.751ZM693.426 352.751C693.426 370.823 693.024 371.192 681.34 371.192C669.657 371.192 669.254 370.454 669.254 355.333C669.254 336.892 670.865 334.31 684.16 334.31C692.621 334.31 693.426 335.785 693.426 352.751Z" fill="white"/>
<path d="M824.763 211.125C823.554 214.445 822.346 219.977 822.346 224.034C822.346 229.566 819.526 231.042 808.648 231.042C800.993 231.042 793.339 232.886 791.727 235.467C788.101 240.631 800.993 249.482 812.677 249.482C819.526 249.482 821.943 252.064 823.151 259.441C824.763 273.456 840.072 273.824 841.684 260.178C842.489 252.802 846.115 249.482 855.784 246.901C872.705 242.475 872.705 233.254 855.784 231.779C846.115 231.042 842.489 228.829 842.489 223.665C842.489 213.338 838.058 205.224 832.418 205.224C829.597 205.224 825.972 207.806 824.763 211.125Z" fill="white"/>
<path d="M782.462 301.116C774.808 305.173 778.836 317.713 788.103 317.713C793.34 317.713 796.563 314.762 797.369 309.968C798.577 301.485 790.52 296.321 782.462 301.116Z" fill="white"/>
<path d="M334.866 629.365C380.391 755.869 386.031 769.516 393.686 769.516C398.521 769.516 403.758 766.934 404.967 763.615C406.175 760.295 407.384 697.227 407.384 623.464V489.214H346.147H284.507L334.866 629.365ZM361.053 539.004C361.053 547.487 359.039 550.069 353.398 550.069C343.729 550.069 336.881 540.111 340.104 531.997C341.715 527.94 346.147 526.096 351.787 526.833C359.039 527.571 361.053 530.153 361.053 539.004ZM373.542 616.456C372.334 619.775 367.902 621.988 364.276 621.251C355.413 619.775 352.19 607.236 359.844 603.179C367.096 599.122 377.168 608.711 373.542 616.456Z" fill="white"/>
</svg>
